<svg xmlns="http://www.w3.org/2000/svg" width="1180" height="380" viewBox="0 0 1180 380" role="img" aria-labelledby="title desc">
  <title id="title">AdventureWorks Azure Medallion Lakehouse Architecture</title>
  <desc id="desc">AdventureWorks CSV data is ingested by Azure Data Factory into bronze storage, transformed by Databricks into silver Parquet and exposed through Synapse gold views for Power BI.</desc>
  <defs>
    <marker id="arrow" viewBox="0 0 10 10" refX="9" refY="5" markerWidth="8" markerHeight="8" orient="auto-start-reverse">
      <path d="M 0 0 L 10 5 L 0 10 z" fill="#0f766e" />
    </marker>
    <style>
      .bg { fill: #f8fafc; }
      .title { fill: #0f172a; font: 700 24px Arial, sans-serif; }
      .subtitle { fill: #475569; font: 400 14px Arial, sans-serif; }
      .box { fill: #ffffff; stroke: #cbd5e1; stroke-width: 1.4; rx: 8; }
      .bronze { fill: #fff7ed; stroke: #c2410c; stroke-width: 1.6; rx: 8; }
      .silver { fill: #f8fafc; stroke: #64748b; stroke-width: 1.6; rx: 8; }
      .gold { fill: #fefce8; stroke: #ca8a04; stroke-width: 1.6; rx: 8; }
      .label { fill: #0f172a; font: 700 15px Arial, sans-serif; }
      .detail { fill: #475569; font: 400 12px Arial, sans-serif; }
      .arrow { stroke: #0f766e; stroke-width: 2.2; fill: none; marker-end: url(#arrow); }
      .lane { fill: #e2e8f0; font: 700 12px Arial, sans-serif; letter-spacing: .4px; }
    </style>
  </defs>
  <rect class="bg" x="0" y="0" width="1180" height="380" rx="18" />
  <text class="title" x="48" y="52">AdventureWorks Azure Medallion Lakehouse</text>
  <text class="subtitle" x="48" y="78">Batch data moves through bronze, silver and gold layers for governed analytical consumption.</text>
  <text class="lane" x="76" y="126">SOURCE</text>
  <text class="lane" x="300" y="126">INGEST</text>
  <text class="lane" x="514" y="126">BRONZE</text>
  <text class="lane" x="718" y="126">SILVER</text>
  <text class="lane" x="920" y="126">GOLD</text>

  <rect class="box" x="48" y="150" width="142" height="90" />
  <text class="label" x="82" y="185">CSV</text>
  <text class="label" x="82" y="205">Source</text>
  <text class="detail" x="82" y="226">AdventureWorks files</text>

  <rect class="box" x="238" y="150" width="142" height="90" />
  <text class="label" x="268" y="185">Azure Data</text>
  <text class="label" x="268" y="205">Factory</text>
  <text class="detail" x="268" y="226">Manifest-driven load</text>

  <rect class="bronze" x="428" y="150" width="142" height="90" />
  <text class="label" x="466" y="185">ADLS</text>
  <text class="label" x="466" y="205">Bronze</text>
  <text class="detail" x="466" y="226">Raw landing layer</text>

  <rect class="silver" x="618" y="150" width="142" height="90" />
  <text class="label" x="655" y="185">Databricks</text>
  <text class="label" x="655" y="205">PySpark</text>
  <text class="detail" x="655" y="226">Clean and transform</text>

  <rect class="silver" x="808" y="150" width="142" height="90" />
  <text class="label" x="850" y="185">ADLS</text>
  <text class="label" x="850" y="205">Silver</text>
  <text class="detail" x="850" y="226">Curated Parquet</text>

  <rect class="gold" x="998" y="150" width="142" height="90" />
  <text class="label" x="1035" y="185">Synapse</text>
  <text class="label" x="1035" y="205">Gold</text>
  <text class="detail" x="1035" y="226">BI-ready views</text>

  <rect class="box" x="428" y="284" width="522" height="48" />
  <text class="detail" x="452" y="306">Governed outputs support Power BI reporting while keeping raw, curated and serving</text>
  <text class="detail" x="452" y="323">responsibilities separated across the medallion architecture.</text>

  <path class="arrow" d="M190 195 H228" />
  <path class="arrow" d="M380 195 H418" />
  <path class="arrow" d="M570 195 H608" />
  <path class="arrow" d="M760 195 H798" />
  <path class="arrow" d="M950 195 H988" />
  <path class="arrow" d="M1069 240 V268 H880 V284" />
</svg>
