<svg xmlns="http://www.w3.org/2000/svg" width="1600" height="600" viewBox="0 0 1600 600" role="img" aria-labelledby="title desc">
  <title id="title">AdventureWorks Azure Medallion Lakehouse Architecture</title>
  <desc id="desc">AdventureWorks CSV data is ingested by Azure Data Factory into bronze storage, transformed by Databricks into silver Parquet and exposed through Synapse gold views for Power BI.</desc>
  <defs>
    <marker id="arrow" viewBox="0 0 10 10" refX="9" refY="5" markerWidth="8" markerHeight="8" orient="auto-start-reverse">
      <path d="M 0 0 L 10 5 L 0 10 z" fill="#0f766e" />
    </marker>
    <style>
      .bg { fill: #f8fafc; }
      .title { fill: #0f172a; font: 700 34px Arial, sans-serif; }
      .subtitle { fill: #475569; font: 400 18px Arial, sans-serif; }
      .box { fill: #ffffff; stroke: #cbd5e1; stroke-width: 2; rx: 10; }
      .bronze { fill: #fff7ed; stroke: #c2410c; stroke-width: 2.4; rx: 10; }
      .silver { fill: #f8fafc; stroke: #64748b; stroke-width: 2.4; rx: 10; }
      .gold { fill: #fefce8; stroke: #ca8a04; stroke-width: 2.4; rx: 10; }
      .label { fill: #0f172a; font: 700 22px Arial, sans-serif; text-anchor: middle; }
      .detail { fill: #475569; font: 400 16px Arial, sans-serif; text-anchor: middle; }
      .arrow { stroke: #0f766e; stroke-width: 3.2; fill: none; marker-end: url(#arrow); }
      .lane { fill: #d3dee9; font: 700 16px Arial, sans-serif; letter-spacing: .6px; text-anchor: middle; }
    </style>
  </defs>
  <rect class="bg" x="0" y="0" width="1600" height="600" rx="24" />
  <text class="title" x="70" y="78">AdventureWorks Azure Medallion Lakehouse</text>
  <text class="subtitle" x="70" y="112">Batch data moves through bronze, silver and gold layers for governed analytical consumption.</text>
  <text class="lane" x="172" y="178">SOURCE</text>
  <text class="lane" x="418" y="178">INGEST</text>
  <text class="lane" x="662" y="178">BRONZE</text>
  <text class="lane" x="1030" y="178">SILVER</text>
  <text class="lane" x="1398" y="178">GOLD</text>

  <rect class="box" x="70" y="220" width="205" height="140" />
  <text class="label" x="172" y="270">CSV</text>
  <text class="label" x="172" y="300">Source</text>
  <text class="detail" x="172" y="332">AdventureWorks files</text>

  <rect class="box" x="315" y="220" width="205" height="140" />
  <text class="label" x="418" y="270">Azure Data</text>
  <text class="label" x="418" y="300">Factory</text>
  <text class="detail" x="418" y="332">Manifest-driven load</text>

  <rect class="bronze" x="560" y="220" width="205" height="140" />
  <text class="label" x="662" y="270">ADLS</text>
  <text class="label" x="662" y="300">Bronze</text>
  <text class="detail" x="662" y="332">Raw landing layer</text>

  <rect class="silver" x="805" y="220" width="205" height="140" />
  <text class="label" x="908" y="270">Databricks</text>
  <text class="label" x="908" y="300">PySpark</text>
  <text class="detail" x="908" y="332">Clean and transform</text>

  <rect class="silver" x="1050" y="220" width="205" height="140" />
  <text class="label" x="1152" y="270">ADLS</text>
  <text class="label" x="1152" y="300">Silver</text>
  <text class="detail" x="1152" y="332">Curated Parquet</text>

  <rect class="gold" x="1295" y="220" width="205" height="140" />
  <text class="label" x="1398" y="270">Synapse</text>
  <text class="label" x="1398" y="300">Gold</text>
  <text class="detail" x="1398" y="332">BI-ready views</text>

  <rect class="box" x="560" y="438" width="695" height="76" />
  <text class="detail" x="908" y="468">Raw, curated and serving responsibilities stay separated</text>
  <text class="detail" x="908" y="492">while gold outputs support Power BI reporting.</text>

  <path class="arrow" d="M275 290 H305" />
  <path class="arrow" d="M520 290 H550" />
  <path class="arrow" d="M765 290 H795" />
  <path class="arrow" d="M1010 290 H1040" />
  <path class="arrow" d="M1255 290 H1285" />
  <path class="arrow" d="M1398 360 V426 H908 V438" />
</svg>
